<mxfile host="app.diagrams.net" modified="2023-08-29T03:10:30.302Z" agent="Mozilla/5.0 (Macintosh; Intel Mac OS X 10_15_7) AppleWebKit/537.36 (KHTML, like Gecko) Chrome/116.0.0.0 Safari/537.36" version="21.6.9" etag="I_GtDbFtKrB_Xokt07KT" type="github">
  <diagram name="第 1 页" id="gPXVeOaT_VB-S_etF3gJ">
    <mxGraphModel>
      <root>
        <mxCell id="0" />
        <mxCell id="1" parent="0" />
      </root>
    </mxGraphModel>
  </diagram>
</mxfile>
